
<svg xmlns="http://www.w3.org/2000/svg" width="48" height="48" viewBox="0 0 512 512">
  <circle cx="256" cy="256" r="248" fill="#ffffff"/>
  <path d="M256 8C119.03 8 8 119.03 8 256h144c0-57.44 46.56-104 104-104s104 46.56 104 104h144c0-136.97-111.03-248-248-248z" fill="#d80027"/>
  <path d="M256 504c136.97 0 248-111.03 248-248H360c0 57.44-46.56 104-104 104s-104-46.56-104-104H8c0 136.97 111.03 248 248 248z" fill="none"/>
  <circle cx="256" cy="256" r="48" fill="#ffffff" stroke="#000" stroke-width="8"/>
</svg>
