
<svg xmlns="http://www.w3.org/2000/svg" width="48" height="48" viewBox="0 0 512 512">
  <circle cx="256" cy="256" r="248" fill="#ffffff"/>
  <path d="M256 8C119.03 8 8 119.03 8 256h144c0-57.44 46.56-104 104-104s104 46.56 104 104h144c0-136.97-111.03-248-248-248z" fill="#222222"/>
  <path d="M360 256c0 57.44-46.56 104-104 104s-104-46.56-104-104H8c0 136.97 111.03 248 248 248s248-111.03 248-248H360z" fill="#ffffff"/>
  <path d="M152 152h208l-16 48H168z" fill="#ffd700"/>
  <circle cx="256" cy="256" r="48" fill="#ffffff" stroke="#000" stroke-width="8"/>
</svg>
